<svg xmlns="http://www.w3.org/2000/svg" viewBox="0 0 320 320">
    <g fill="#660166">
        <path d="M20.007 4.746l3.076-.018 3.374.011 3.588-.012 9.863-.004 10.636-.014 20.838-.012 16.935-.004 2.433-.002 4.893-.004 45.902-.003 42.009-.025 43.118-.024 24.214-.015L271.5 4.62l10.519-.005 11.397.01 3.367-.022C306.244 4.67 306.244 4.67 310 8l2.773 2.454c3.521 4.507 2.913 9.802 2.855 15.274l.021 3.604-.011 9.878.014 10.663-.008 20.879-.015 16.969.001 2.44.003 4.907-.038 43.385-.021 42.097.003 45.843-.006 4.889-.003 2.43.004 16.948-.024 20.654-.007 10.538-.029 11.422.025 3.366c-.064 5.929-.316 9.825-4.54 14.363-5.369 4.994-10.749 4.564-17.691 4.508l-3.591.019a1262.68 1262.68 0 0 1-9.844-.004c-3.542-.009-7.084.005-10.626.016l-20.806.002-16.91-.006-2.431.002-4.89.004c-15.283.011-30.565-.002-45.848-.023-13.113-.018-26.225-.015-39.338.004l-45.684.018-4.872-.004-2.421-.002c-5.63-.003-11.26.002-16.889.012-6.861.011-13.722.008-20.583-.013l-10.501-.001c-3.795.011-7.588-.003-11.383-.023l-3.354.027c-5.922-.061-9.803-.318-14.337-4.535-4.999-5.372-4.569-10.774-4.521-17.722l-.023-3.602-.008-9.872-.028-10.657-.024-20.868-.008-16.962-.004-2.439-.007-4.905-.005-45.993-.05-42.072-.048-43.207-.029-24.254-.002-20.647-.01-10.532.021-11.421-.045-3.357c.086-6.123.791-9.72 5.116-14.182 3.532-2.759 6.212-3.56 10.684-3.564z"/>
        <path d="M5 83l8.105-.03 2.297-.012c6.304-.013 12.469.422 18.723 1.23l3.19.403C55.536 87.026 72.896 91.263 90 98l2.585 1.016C122.408 110.905 147.74 127.95 171 150l1.521 1.434c7.998 7.592 14.902 15.724 21.479 24.566l1.289 1.71c27.841 37.089 45.868 83.925 45.731 130.649l-.009 3.78L241 315l-86.067.204-10.161.015-2.043.003-32.754.086-33.609.068-18.877.047-17.763.03-6.523.024-8.901.004-2.612.035c-5.366-.053-8.511-.844-12.69-4.516-4.332-4.948-4.567-8.88-4.481-15.15l-.01-2.763.037-9.148-.002-6.564.05-17.812.032-18.618.079-33.248.075-30.178.003-2.005.015-9.957L5 83z"/>
    </g>
    <path d="M5 36c25.771 0 25.771 0 34.313 1.125l3.086.387C54.133 39.106 65.571 41.954 77 45l2.833.743C110.226 53.84 140.523 67.519 166 86l3.184 2.301C189.948 103.616 210.294 121.414 226 142l2.75 3.492c28.295 36.353 47.553 79.844 54.896 125.342.305 1.867.648 3.728.999 5.588 2.194 12.693 1.989 25.747 2.355 38.578h-46l-1.187-15.5c-5.281-61.807-33.365-117.775-79.687-159.062-2.661-2.217-5.367-4.343-8.125-6.437l-1.686-1.295c-8.484-6.495-17.193-12.384-26.483-17.664l-5.229-3.025c-18.225-10.239-38.849-18.19-59.289-22.578l-2.952-.636C39.367 85.291 22.316 84.019 5 83V36z"
          fill="#fefdfe"/>
    <path d="M5 181l7.199-.023 2.046-.01c33.816-.062 65.146 16.906 89.298 39.537 4.169 4.235 7.869 8.764 11.457 13.496l1.797 2.355C124.995 247.58 131.576 259.825 136 273l1.117 3.203c3.468 10.479 5.003 20.707 4.93 31.742l-.01 2.071L142 315l-49.365.207-22.922.095-19.981.075-10.577.047-11.815.031-3.533.044C17.74 315.467 13.618 315.372 9 311c-5.096-5.421-4.543-11.035-4.454-18.064l-.002-3.668.05-9.916.032-10.378.085-19.634.087-22.36L5 181z"
          fill="#606"/>
    <path d="M120 5l72.104-.155 33.478-.071 29.176-.056 15.452-.035 14.54-.022 5.339-.018 7.286-.003 2.137-.026c6.166.056 8.947 1.876 13.262 6.11 2.668 3.929 2.843 6.005 2.826 10.719l.013 2.206-.047 7.282.002 5.234-.063 14.186-.04 14.834-.107 28.081-.108 31.973L315 191c-2.003-2.003-2.662-3.237-3.742-5.797l-1.022-2.371-1.111-2.582C294.828 147.906 274.776 119.08 251 93l-4.625-5.187C240.289 81.062 233.903 74.906 227 69l-2.73-2.395C208.674 53.031 191.797 41.485 174 31l-2.355-1.391C155.197 19.984 137.937 12.388 120 6V5zM5 134c22.117 0 22.117 0 31.188 1.688l3.075.548c8.52 1.587 16.613 3.739 24.737 6.765l2.341.859C116.081 162.327 152.712 198.083 175 246c9.799 22.419 13 44.476 13 69h-46l-.812-10.687C138.788 276.07 128.252 250.714 110 229l-2.242-2.703C85.944 200.99 52.979 185.239 20 182l-15-1v-47z"
          fill="#fefdfe"/>
    <path d="M221 5l32.598-.155 15.136-.071 14.608-.058 5.573-.033 7.807-.023 2.326-.033c6.419.037 9.2 1.685 13.73 6.048 2.804 3.574 2.897 7.126 2.791 11.534l.002 2.426-.082 7.889-.021 5.49-.124 14.411-.099 14.72L315 96c-3.692-3.634-6.981-7.39-10.125-11.5C289.229 64.346 272.131 44.779 252 29l-3.453-2.828c-7.303-5.975-14.766-11.548-22.62-16.783L221 6V5z"
          fill="#660166"/>
</svg>